<?xml version="1.0" standalone="no"?><!DOCTYPE svg PUBLIC "-//W3C//DTD SVG 1.1//EN" "http://www.w3.org/Graphics/SVG/1.1/DTD/svg11.dtd"><svg t="1565600790878" class="icon" viewBox="0 0 1024 1024" version="1.1" xmlns="http://www.w3.org/2000/svg" p-id="18242" xmlns:xlink="http://www.w3.org/1999/xlink" width="30" height="30"><defs><style type="text/css"></style></defs><path d="M912 412v166.7c0 4.8-1.5 8.9-4.7 11.9s-7.1 4.7-11.9 4.7h-50V812c0 13.9-4.8 25.7-14.6 35.4-9.7 9.7-21.6 14.6-35.4 14.6H228.6c-13.9 0-25.7-4.8-35.4-14.6-9.7-9.7-14.6-21.6-14.6-35.4V595.4h-50c-4.8 0-8.9-1.5-11.9-4.7-3.2-3.2-4.7-7.1-4.7-11.9V412c0-4.8 1.5-8.9 4.7-11.9 3.2-3.2 7.1-4.7 11.9-4.7h229.2c-32.3 0-59.8-11.4-82.6-34.1-22.8-22.8-34.1-50.3-34.1-82.6s11.4-59.8 34.1-82.6c22.8-22.8 50.3-34.1 82.6-34.1 37.1 0 66.3 13.4 87.5 40.1l66.7 86 66.7-86c21.1-26.7 50.4-40.1 87.5-40.1 32.3 0 59.8 11.4 82.6 34.1 22.8 22.8 34.1 50.3 34.1 82.6s-11.4 59.8-34.1 82.6c-22.8 22.8-50.3 34.1-82.6 34.1h229.2c4.8 0 8.9 1.5 11.9 4.7 3.1 3.1 4.7 7.1 4.7 11.9z m-554.2-83.3h101.5l-65.6-83.9c-9-10.7-21-16.1-35.9-16.1-13.9 0-25.7 4.8-35.4 14.6-9.7 9.7-14.6 21.6-14.6 35.4 0 13.9 4.8 25.7 14.6 35.4 9.7 9.7 21.5 14.6 35.4 14.6z m237.5 439.6v-373H428.6v372.8c0 8.7 3.2 15.3 9.4 20s14.2 7 24 7h100c9.7 0 17.7-2.3 24-7 6.1-4.4 9.3-11.1 9.3-19.8z m106.3-454.2c9.7-9.7 14.6-21.6 14.6-35.4 0-13.9-4.8-25.7-14.6-35.4-9.7-9.7-21.6-14.6-35.4-14.6-14.9 0-26.9 5.4-35.9 16.1l-65.1 83.9h101c13.8 0 25.6-4.9 35.4-14.6z" p-id="18243"></path></svg>