<?xml version="1.0" standalone="no"?><!DOCTYPE svg PUBLIC "-//W3C//DTD SVG 1.1//EN" "http://www.w3.org/Graphics/SVG/1.1/DTD/svg11.dtd"><svg t="1565600963161" class="icon" viewBox="0 0 1024 1024" version="1.1" xmlns="http://www.w3.org/2000/svg" p-id="20321" xmlns:xlink="http://www.w3.org/1999/xlink" width="28" height="28"><defs><style type="text/css"></style></defs><path d="M743 370.9l-76.2-170.2-379.9 170.2H743z" fill="#333333" p-id="20322"></path><path d="M788 545h53V395.9H189v397.6h652v-149h-53c-27.3 0-49.7-22.4-49.7-49.7 0-27.3 22.4-49.8 49.7-49.8z" fill="#DC2F2F" p-id="20323"></path><path d="M777.3 597.5c0 12 9.7 21.7 21.7 21.7s21.7-9.7 21.7-21.7-9.7-21.7-21.7-21.7-21.7 9.7-21.7 21.7z" fill="#DC2F2F" p-id="20324"></path><path d="M589 495.5l-53 88.9h46.1v15.9h-56.3v25.2h56.8v15.9h-56.8V694h-20.9v-52.6h-56.3v-15.9h56.3v-25.2h-56.3v-15.9h46.1l-53.5-88.9h23.3l51.3 87.5 50.8-87.5H589z" fill="#FFFFFF" p-id="20325"></path></svg>