<?xml version="1.0" standalone="no"?><!DOCTYPE svg PUBLIC "-//W3C//DTD SVG 1.1//EN" "http://www.w3.org/Graphics/SVG/1.1/DTD/svg11.dtd"><svg t="1565711173348" class="icon" viewBox="0 0 1024 1024" version="1.1" xmlns="http://www.w3.org/2000/svg" p-id="2135" xmlns:xlink="http://www.w3.org/1999/xlink" width="28" height="28"><defs><style type="text/css"></style></defs><path d="M512 1024C229.2224 1024 0 794.7776 0 512 0 229.2224 229.2224 0 512 0 794.7776 0 1024 229.2224 1024 512 1024 794.7776 794.7776 1024 512 1024ZM512 51.2C257.5104 51.2 51.2 257.5104 51.2 512 51.2 766.4896 257.5104 972.8 512 972.8 766.4896 972.8 972.8 766.4896 972.8 512 972.8 257.5104 766.4896 51.2 512 51.2ZM307.2 486.4 716.8 486.4 716.8 537.6 307.2 537.6 307.2 486.4Z" p-id="2136"></path></svg>