<?xml version="1.0" standalone="no"?><!DOCTYPE svg PUBLIC "-//W3C//DTD SVG 1.1//EN" "http://www.w3.org/Graphics/SVG/1.1/DTD/svg11.dtd"><svg t="1565618276259" class="icon" viewBox="0 0 1024 1024" version="1.1" xmlns="http://www.w3.org/2000/svg" p-id="28706" xmlns:xlink="http://www.w3.org/1999/xlink" width="28" height="28"><defs><style type="text/css"></style></defs><path d="M849.6 437h-112.6V362h-600v450c0 41.4 33.6 75 75 75h450c41.4 0 75-33.6 75-75v-37.6h112.6c20.8 0 37.6-16.8 37.6-37.6V474.6c-0.2-20.8-17-37.6-37.6-37.6zM362 699.6c0 20.8-16.8 37.6-37.6 37.6s-37.6-16.8-37.6-37.6v-150c0-20.8 16.8-37.6 37.6-37.6s37.6 16.8 37.6 37.6v150z m225 0c0 20.8-16.8 37.6-37.6 37.6s-37.6-16.8-37.6-37.6v-150c0-20.8 16.8-37.6 37.6-37.6s37.6 16.8 37.6 37.6v150z m225 0h-75V512H812v187.6zM605.8 174.6c-22.2 0-43.6 6.2-62.8 16.8-24.4-33.4-63.4-54.4-106-54.4-43.2 0-82.2 20.6-106.2 54.2-19-10.4-40.4-16.6-62.4-16.6-65.8 0-120 48.8-129.4 112h596.2c-9.4-63.2-63.6-112-129.4-112z" p-id="28707"></path></svg>